<svg width="17" height="24" viewBox="0 0 17 24" fill="none" xmlns="http://www.w3.org/2000/svg">
<path fill-rule="evenodd" clip-rule="evenodd" d="M2.62433 0H14.098C15.5473 0 16.7223 1.23747 16.7223 2.76398V20.39C16.7223 21.9165 15.5473 23.1539 14.098 23.1539H2.62433C1.17495 23.1539 0 21.9165 0 20.39V2.76398C0 1.23747 1.17495 0 2.62433 0ZM6.0735 15.2105C6.11301 15.4672 6.3221 15.6492 6.56083 15.6492L6.55918 15.6475C6.58552 15.6475 6.61187 15.6458 6.63821 15.6406C6.90821 15.5938 7.09096 15.3285 7.04816 15.0441C6.8473 13.7158 5.91545 12.6477 4.67572 12.3235C4.41065 12.2541 4.14229 12.424 4.07644 12.7032C4.01058 12.9824 4.17193 13.265 4.437 13.3344C5.30464 13.5615 5.93191 14.2811 6.0735 15.2105ZM7.9158 14.6591C7.96684 14.9002 8.17099 15.0632 8.39654 15.0632C8.43276 15.0632 8.47063 15.058 8.50685 15.0493C8.77356 14.9851 8.93985 14.7077 8.87893 14.4268C8.47063 12.5367 7.12718 10.997 5.37379 10.4074C5.11366 10.3207 4.83542 10.4716 4.7531 10.7455C4.67078 11.0195 4.81402 11.3125 5.07415 11.3992C6.49497 11.8778 7.58488 13.1263 7.9158 14.6591ZM9.79432 14.1199C9.84694 14.3623 10.0507 14.527 10.2759 14.5273C10.2756 14.5273 10.2754 14.5273 10.2751 14.5273H10.2767C10.2764 14.5273 10.2762 14.5273 10.2759 14.5273C10.3119 14.5273 10.3478 14.5238 10.3837 14.5152C10.6504 14.4528 10.8184 14.1753 10.7591 13.8944C10.224 11.3646 8.43112 9.30805 6.08173 8.53122C5.8216 8.44452 5.54501 8.59711 5.46269 8.87108C5.38037 9.14505 5.52525 9.43636 5.78538 9.52306C7.79891 10.1889 9.33498 11.9506 9.79432 14.1199ZM11.7403 13.532C11.793 13.7745 11.9967 13.9391 12.2219 13.9395C12.2217 13.9395 12.2214 13.9395 12.2211 13.9395H12.2227C12.2225 13.9395 12.2222 13.9395 12.2219 13.9395C12.2579 13.9395 12.2938 13.936 12.3297 13.9274C12.5965 13.865 12.7644 13.5875 12.7051 13.3066C12.0285 10.1109 9.76798 7.51857 6.80285 6.53713C6.54272 6.45043 6.26613 6.60303 6.18381 6.877C6.10149 7.15097 6.24637 7.44228 6.5065 7.52897C9.13577 8.39944 11.1411 10.6987 11.7403 13.532Z" fill="url(#paint0_linear_1305_14339)"/>
<defs>
<linearGradient id="paint0_linear_1305_14339" x1="0.643165" y1="0.643165" x2="15.436" y2="23.1539" gradientUnits="userSpaceOnUse">
<stop stop-color="#A188F5"/>
<stop offset="1" stop-color="#5ED3D0"/>
</linearGradient>
</defs>
</svg>
