<svg width="17" height="23" viewBox="0 0 17 23" fill="none" xmlns="http://www.w3.org/2000/svg">
<path fill-rule="evenodd" clip-rule="evenodd" d="M2.66791 0H14.3321C15.8055 0 17 1.22925 17 2.7456V20.2544C17 21.7708 15.8055 23 14.3321 23H2.66791C1.19447 23 0 21.7708 0 20.2544V2.7456C0 1.22925 1.19447 0 2.66791 0ZM11 7H11.6662C11.8595 7 12.0251 7.13825 12.0597 7.32845L13.9143 17.5284C13.9589 17.774 13.7703 18 13.5207 18H3.47929C3.22972 18 3.04109 17.774 3.08574 17.5284L4.94028 7.32845C4.97486 7.13825 5.14052 7 5.33383 7H6V6.5C6 5.11929 7.11929 4 8.5 4C9.88071 4 11 5.11929 11 6.5V7ZM6.45989 7H10.5401C10.3158 6.0816 9.4875 5.4 8.5 5.4C7.5125 5.4 6.6842 6.0816 6.45989 7ZM8.5 4.4C7.48393 4.4 6.63641 5.12161 6.44195 6.08029C6.89303 5.42763 7.64658 5 8.5 5C9.35342 5 10.107 5.42763 10.5581 6.08029C10.3636 5.12161 9.51607 4.4 8.5 4.4Z" fill="url(#paint0_linear_1305_14346)"/>
<defs>
<linearGradient id="paint0_linear_1305_14346" x1="0.653846" y1="0.638889" x2="15.2107" y2="23.3092" gradientUnits="userSpaceOnUse">
<stop stop-color="#A188F5"/>
<stop offset="1" stop-color="#5ED3D0"/>
</linearGradient>
</defs>
</svg>
