<svg width="17" height="23" viewBox="0 0 17 23" fill="none" xmlns="http://www.w3.org/2000/svg">
<path fill-rule="evenodd" clip-rule="evenodd" d="M2.60688 0.758789H14.0042C15.444 0.758789 16.6111 1.90326 16.6111 3.31504V19.6163C16.6111 21.0281 15.444 22.1726 14.0042 22.1726H2.60688C1.16714 22.1726 0 21.0281 0 19.6163V3.31504C0 1.90326 1.16714 0.758789 2.60688 0.758789ZM9.43256 16.3242C11.4719 16.0578 12.4916 15.0529 12.4916 13.3097C12.4916 12.6657 12.3306 12.1438 12.0086 11.7441C11.6985 11.3443 11.3288 11.0501 10.8994 10.8613C10.482 10.6726 9.94537 10.4783 9.28944 10.2784C8.74085 10.123 8.33537 9.97862 8.073 9.84538C7.82256 9.71213 7.69733 9.52893 7.69733 9.29575C7.69733 9.19582 7.71522 9.107 7.751 9.02927C7.78678 8.95155 7.82852 8.90158 7.87622 8.87938C7.90007 8.86827 8.00144 8.86272 8.18033 8.86272C8.60967 8.86272 9.59952 8.91269 11.1499 9.01262L11.5613 9.02927C11.6329 8.70727 11.6985 8.35196 11.7581 7.96334C11.8297 7.57472 11.8714 7.26938 11.8833 7.04731C11.5256 6.93627 11.0485 6.84744 10.4522 6.78082L10.9173 5.39844H8.073L7.62578 6.76417C7.20837 6.81969 6.82078 6.89186 6.463 6.98069C6.10522 7.05841 5.8667 7.13613 5.74744 7.21386C5.497 7.38041 5.25252 7.70241 5.014 8.17986C4.77548 8.6462 4.65622 9.12365 4.65622 9.6122C4.65622 10.3006 4.81722 10.8558 5.13922 11.2777C5.46122 11.6997 5.83689 12.0105 6.26622 12.2104C6.69556 12.4103 7.23818 12.6046 7.89411 12.7933C8.4427 12.9599 8.8303 13.1042 9.05689 13.2264C9.28348 13.3374 9.39678 13.504 9.39678 13.726C9.39678 13.8038 9.37293 13.8981 9.32522 14.0092C9.28944 14.1091 9.23578 14.1813 9.16422 14.2257C9.11652 14.259 8.96744 14.2757 8.717 14.2757C8.28767 14.2757 7.64963 14.2368 6.80289 14.1591C5.96807 14.0813 5.34196 14.0147 4.92456 13.9592C4.853 14.1813 4.77548 14.5199 4.692 14.9752C4.62044 15.4193 4.57274 15.758 4.54889 15.9911C5.09748 16.1244 5.77726 16.2299 6.58822 16.3076L6.06944 17.8898H8.91378L9.43256 16.3242Z" fill="url(#paint0_linear_1305_14370)"/>
<defs>
<linearGradient id="paint0_linear_1305_14370" x1="0.638889" y1="1.35362" x2="13.9094" y2="23.0438" gradientUnits="userSpaceOnUse">
<stop stop-color="#A188F5"/>
<stop offset="1" stop-color="#5ED3D0"/>
</linearGradient>
</defs>
</svg>
