<svg width="17" height="23" viewBox="0 0 17 23" fill="none" xmlns="http://www.w3.org/2000/svg">
<path fill-rule="evenodd" clip-rule="evenodd" d="M14.0042 0H2.60688C1.16714 0 0 1.22925 0 2.7456V20.2544C0 21.7708 1.16714 23 2.60688 23H14.0042C15.444 23 16.6111 21.7708 16.6111 20.2544V2.7456C16.6111 1.22925 15.444 0 14.0042 0ZM11.0419 8.80026C11.0419 10.3119 9.81651 11.5373 8.30487 11.5373C6.79324 11.5373 5.56782 10.3119 5.56782 8.80026C5.56782 7.28863 6.79324 6.06321 8.30487 6.06321C9.81651 6.06321 11.0419 7.28863 11.0419 8.80026ZM14.0323 16.7743C14.1848 17.5045 13.5659 18.1156 12.8199 18.1156H3.79119C3.04519 18.1156 2.42628 17.5045 2.57885 16.7743C2.81834 15.6281 3.36201 14.5675 4.15829 13.7244C5.25821 12.5598 6.75003 11.9055 8.30556 11.9055C9.86108 11.9055 11.3529 12.5598 12.4528 13.7244C13.2491 14.5675 13.7928 15.6281 14.0323 16.7743Z" fill="url(#paint0_linear_1305_14360)"/>
<defs>
<linearGradient id="paint0_linear_1305_14360" x1="0.638889" y1="0.638889" x2="15.3333" y2="23" gradientUnits="userSpaceOnUse">
<stop stop-color="#A188F5"/>
<stop offset="1" stop-color="#5ED3D0"/>
</linearGradient>
</defs>
</svg>
