<svg width="17" height="23" viewBox="0 0 17 23" fill="none" xmlns="http://www.w3.org/2000/svg">
<path fill-rule="evenodd" clip-rule="evenodd" d="M2.66791 0H14.3321C15.8055 0 17 1.22925 17 2.7456V20.2544C17 21.7708 15.8055 23 14.3321 23H2.66791C1.19447 23 0 21.7708 0 20.2544V2.7456C0 1.22925 1.19447 0 2.66791 0ZM14 11.5C14 14.5376 11.5376 17 8.5 17C5.46243 17 3 14.5376 3 11.5C3 8.46243 5.46243 6 8.5 6C11.5376 6 14 8.46243 14 11.5ZM11.0281 11.5241V14.6591C10.5367 14.8204 10.0711 14.9377 9.63108 15.0111C9.19108 15.0844 8.82075 15.1211 8.52008 15.1211C7.52275 15.1211 6.74174 14.8607 6.17708 14.3401C5.61241 13.8194 5.33008 13.0201 5.33008 11.9421C5.33008 10.8421 5.62708 10.0207 6.22108 9.47808C6.81508 8.92808 7.65108 8.65308 8.72908 8.65308C9.29375 8.65308 9.97208 8.73741 10.7641 8.90608C10.7641 9.05274 10.7494 9.27274 10.7201 9.56608C10.6907 9.85208 10.6614 10.0537 10.6321 10.1711L10.2361 10.1601C9.75208 10.1454 9.37441 10.1381 9.10308 10.1381C8.28908 10.1381 7.84541 10.1857 7.77208 10.2811C7.65474 10.4204 7.57041 10.6367 7.51908 10.9301C7.47508 11.2234 7.45308 11.5057 7.45308 11.7771C7.45308 12.2684 7.50808 12.6497 7.61808 12.9211C7.72808 13.1924 7.89675 13.3831 8.12408 13.4931C8.35141 13.6031 8.65941 13.6581 9.04808 13.6581H9.09208V11.5241H11.0281Z" fill="url(#paint0_linear_1305_14388)"/>
<defs>
<linearGradient id="paint0_linear_1305_14388" x1="0.653846" y1="0.638889" x2="15.2107" y2="23.3092" gradientUnits="userSpaceOnUse">
<stop stop-color="#A188F5"/>
<stop offset="1" stop-color="#5ED3D0"/>
</linearGradient>
</defs>
</svg>
