<svg width="17" height="23" viewBox="0 0 17 23" fill="none" xmlns="http://www.w3.org/2000/svg">
<path fill-rule="evenodd" clip-rule="evenodd" d="M2.66791 0H14.3321C15.8055 0 17 1.22925 17 2.7456V20.2544C17 21.7708 15.8055 23 14.3321 23H2.66791C1.19447 23 0 21.7708 0 20.2544V2.7456C0 1.22925 1.19447 0 2.66791 0ZM9.40682 9.47291C8.97665 10.4435 8.06101 12.8206 7.83978 14.5638C7.75911 15.1994 7.71295 15.9176 7.66791 16.6186C7.55852 18.3207 7.45567 19.9212 6.88112 19.9914C6.06994 20.0904 4.26323 19.3971 5.57217 14.5638C6.61933 10.6971 8.07331 9.17578 8.6694 8.89845C8.10404 8.72017 6.67096 8.43096 5.46157 8.70037C4.97422 8.80893 4.46197 8.9669 3.98533 9.11388C2.98347 9.42283 2.139 9.68325 2.01408 9.33425C1.82972 8.81922 3.48894 7.45241 5.05598 7.25432C6.30962 7.09585 7.5694 7.18829 8.04258 7.25432C7.93197 6.95059 7.48582 6.21237 6.58615 5.68942C6.34978 5.55202 6.11585 5.4225 5.89515 5.3003C5.06583 4.84113 4.4233 4.48537 4.53978 4.20376C4.68727 3.8472 6.99174 3.92643 7.91353 4.69898C8.65096 5.31701 9.3884 6.29029 9.66493 6.69967C10.0459 6.5478 11.0329 6.25199 11.9325 6.28368C13.0571 6.3233 14.4398 6.69967 14.4398 7.13546C14.4398 7.42692 13.7389 7.46143 13.0816 7.4938C12.7561 7.50983 12.4412 7.52533 12.2275 7.57126C11.7113 7.68219 10.9923 7.98724 10.6973 8.12591C11.4839 8.29758 13.271 8.87864 14.1264 9.82947C15.1957 11.018 16.3571 13.3554 15.8962 13.5733C15.617 13.7053 15.1145 13.1758 14.5568 12.5881C14.1939 12.2056 13.8076 11.7985 13.4443 11.533C12.7068 10.9942 11.7482 10.3445 11.361 10.087C11.5085 10.4039 11.7998 11.1725 11.785 11.7113C11.7841 11.7448 11.7832 11.7804 11.7823 11.8178C11.7639 12.5308 11.7289 13.8863 11.361 13.811C11.1022 13.7581 10.934 13.0412 10.7684 12.335C10.6862 11.9848 10.6047 11.6372 10.513 11.3746C10.2917 10.7407 9.68336 9.84267 9.40682 9.47291Z" fill="url(#paint0_linear_1305_14378)"/>
<defs>
<linearGradient id="paint0_linear_1305_14378" x1="0.653846" y1="0.638889" x2="15.2107" y2="23.3092" gradientUnits="userSpaceOnUse">
<stop stop-color="#A188F5"/>
<stop offset="1" stop-color="#5ED3D0"/>
</linearGradient>
</defs>
</svg>
